<?xml version="1.0" encoding="UTF-8" standalone="no"?>
<!-- Uploaded to: SVG Repo, www.svgrepo.com, Generator: SVG Repo Mixer Tools -->

<svg
   fill="#000000"
   version="1.1"
   id="Capa_1"
   width="50"
   height="50"
   viewBox="0 0 30.67075 30.67075"
   xml:space="preserve"
   sodipodi:docname="linkedin-square-logo.svg"
   inkscape:version="1.2.2 (732a01da63, 2022-12-09)"
   xmlns:inkscape="http://www.inkscape.org/namespaces/inkscape"
   xmlns:sodipodi="http://sodipodi.sourceforge.net/DTD/sodipodi-0.dtd"
   xmlns="http://www.w3.org/2000/svg"
   xmlns:svg="http://www.w3.org/2000/svg"><defs
   id="defs11">
	

		
	</defs><sodipodi:namedview
   id="namedview9"
   pagecolor="#ffffff"
   bordercolor="#000000"
   borderopacity="0.25"
   inkscape:showpageshadow="2"
   inkscape:pageopacity="0.0"
   inkscape:pagecheckerboard="0"
   inkscape:deskcolor="#d1d1d1"
   showgrid="false"
   inkscape:zoom="1.8561553"
   inkscape:cx="20.203051"
   inkscape:cy="50.642316"
   inkscape:window-width="1366"
   inkscape:window-height="745"
   inkscape:window-x="1358"
   inkscape:window-y="387"
   inkscape:window-maximized="1"
   inkscape:current-layer="Capa_1" />
<path
   id="path2"
   style="fill:#000000;fill-opacity:1;stroke-width:0.0625"
   d="M 2.5558958,0 C 1.139931,0 0,1.139931 0,2.5558958 V 28.114854 c 0,1.415965 1.139931,2.555896 2.5558958,2.555896 H 28.114854 c 1.415965,0 2.555896,-1.139931 2.555896,-2.555896 V 2.5558958 C 30.67075,1.139931 29.530819,0 28.114854,0 Z m 1.7646665,4.4828017 h 3.0625821 c 0.4226246,0 0.7662696,0.3435825 0.7662696,0.7662696 v 2.7181354 c 0,0.4226871 -0.343645,0.7662696 -0.7662696,0.7662696 H 4.3205623 c -0.4222496,0 -0.7637735,-0.343645 -0.7637735,-0.7662696 V 5.2490713 c 0,-0.4226871 0.3415239,-0.7662696 0.7637735,-0.7662696 z M 21.280829,10.69283 c 1.013248,0 1.938852,0.184181 2.778038,0.549118 0.838875,0.364875 1.474069,0.831256 1.904441,1.397756 0.430313,0.566437 0.729871,1.207781 0.898559,1.926906 0.168687,0.719061 0.252096,1.749664 0.252096,3.090038 v 7.580327 c 0,0.422625 -0.341463,0.766271 -0.763775,0.766271 h -3.062582 c -0.422687,0 -0.76627,-0.343708 -0.76627,-0.766271 V 19.58605 c 0,-1.874248 -0.0979,-3.086286 -0.294528,-3.636661 -0.19625,-0.550437 -0.514527,-0.978127 -0.955964,-1.28294 -0.441374,-0.305249 -0.971318,-0.459262 -1.592443,-0.459262 -0.795561,0 -1.509624,0.218263 -2.141561,0.65395 -0.631874,0.436062 -1.065912,1.013094 -1.300412,1.732218 -0.234062,0.719124 -0.349439,2.049347 -0.349439,3.988596 v 4.655024 c 0,0.422625 -0.343957,0.766271 -0.766269,0.766271 h -3.062582 c -0.42225,0 -0.763774,-0.343708 -0.763774,-0.766271 V 11.85097 c 0,-0.422687 0.341461,-0.763773 0.763774,-0.763773 h 2.735607 c 0.422687,0 0.766269,0.341086 0.766269,0.763773 v 1.020861 c 0,0.422687 0.20509,0.489715 0.489215,0.177215 1.428998,-1.570186 3.174101,-2.356217 5.2316,-2.356216 z M 4.3205623,11.087197 h 3.0625821 c 0.4226246,0 0.7662696,0.341086 0.7662696,0.763773 v 13.386005 c 0,0.422625 -0.343645,0.766271 -0.7662696,0.766271 H 4.3205623 c -0.4222496,0 -0.7637735,-0.343708 -0.7637735,-0.766271 V 11.85097 c 0,-0.422687 0.3415239,-0.763773 0.7637735,-0.763773 z" />
</svg>
